<?xml version="1.0" encoding="UTF-8"?>
<svg width="260px" height="112px" viewBox="0 0 260 112" version="1.1" xmlns="http://www.w3.org/2000/svg" xmlns:xlink="http://www.w3.org/1999/xlink">
    <!-- Generator: Sketch 64 (93537) - https://sketch.com -->
    <title>编组 4</title>
    <desc>Created with Sketch.</desc>
    <defs>
        <linearGradient x1="54.3040175%" y1="0%" x2="54.3040175%" y2="100%" id="linearGradient-1">
            <stop stop-color="#FFF6DC" offset="0%"></stop>
            <stop stop-color="#FFFDAE" offset="100%"></stop>
        </linearGradient>
        <path d="M36,0 L184,0 C203.882251,-3.65231026e-15 220,16.117749 220,36 C220,55.882251 203.882251,72 184,72 L36,72 C16.117749,72 2.4348735e-15,55.882251 0,36 C-2.4348735e-15,16.117749 16.117749,3.65231026e-15 36,0 Z" id="path-2"></path>
        <filter x="-15.9%" y="-34.7%" width="131.8%" height="197.2%" filterUnits="objectBoundingBox" id="filter-3">
            <feOffset dx="0" dy="10" in="SourceAlpha" result="shadowOffsetOuter1"></feOffset>
            <feGaussianBlur stdDeviation="10" in="shadowOffsetOuter1" result="shadowBlurOuter1"></feGaussianBlur>
            <feColorMatrix values="0 0 0 0 1   0 0 0 0 0.988235294   0 0 0 0 0.701960784  0 0 0 0.2 0" type="matrix" in="shadowBlurOuter1"></feColorMatrix>
        </filter>
        <filter x="-28.8%" y="-431.3%" width="157.5%" height="962.5%" filterUnits="objectBoundingBox" id="filter-4">
            <feGaussianBlur stdDeviation="2.25" in="SourceGraphic"></feGaussianBlur>
        </filter>
        <linearGradient x1="50%" y1="16.9945126%" x2="50%" y2="85.9933036%" id="linearGradient-5">
            <stop stop-color="#FFB905" offset="0%"></stop>
            <stop stop-color="#FB4700" offset="100%"></stop>
        </linearGradient>
        <linearGradient x1="50%" y1="0%" x2="50%" y2="100%" id="linearGradient-6">
            <stop stop-color="#FDE543" offset="0%"></stop>
            <stop stop-color="#FFC013" offset="100%"></stop>
        </linearGradient>
        <polygon id="path-7" points="12 11.1428571 16.0029197 11.1428571 18.0087591 15.8015981 19.9883212 11.1428571 24 11.1428571 20.9430657 17.0551549 23.5445255 17.0551549 23.5445255 19.1225882 19.8569343 19.1225882 19.8569343 20.2545313 23.5445255 20.2545313 23.5445255 22.3500292 19.8569343 22.3500292 19.8569343 24.8571429 16.2131387 24.8571429 16.2131387 22.3500292 12.4642336 22.3500292 12.4642336 20.2545313 16.2131387 20.2545313 16.2131387 19.1225882 12.4642336 19.1225882 12.4642336 17.0551549 15.1445255 17.0551549"></polygon>
        <filter x="-83.3%" y="-58.3%" width="266.7%" height="245.8%" filterUnits="objectBoundingBox" id="filter-8">
            <feOffset dx="0" dy="2" in="SourceAlpha" result="shadowOffsetOuter1"></feOffset>
            <feGaussianBlur stdDeviation="3" in="shadowOffsetOuter1" result="shadowBlurOuter1"></feGaussianBlur>
            <feColorMatrix values="0 0 0 0 0.66236413   0 0 0 0 0.288445394   0 0 0 0 0  0 0 0 0.5 0" type="matrix" in="shadowBlurOuter1"></feColorMatrix>
        </filter>
    </defs>
    <g id="2期下" stroke="none" stroke-width="1" fill="none" fill-rule="evenodd">
        <g id="租币商城" transform="translate(-480.000000, -285.000000)">
            <g id="编组-4" transform="translate(500.000000, 295.000000)">
                <g id="矩形">
                    <use fill="black" fill-opacity="1" filter="url(#filter-3)" xlink:href="#path-2"></use>
                    <use fill="url(#linearGradient-1)" fill-rule="evenodd" xlink:href="#path-2"></use>
                </g>
                <g id="编组-3" transform="translate(20.000000, 18.000000)">
                    <path d="M18.7826087,34.4354752 C26.56262,34.4354752 30.5217391,34.489985 30.5217391,33.9141965 C30.5217391,33.3384081 26.56262,32.8716393 18.7826087,32.8716393 C11.0025974,32.8716393 7.04347826,33.3384081 7.04347826,33.9141965 C7.04347826,34.489985 11.0025974,34.4354752 18.7826087,34.4354752 Z" id="椭圆形" fill="#D47500" filter="url(#filter-4)"></path>
                    <g id="编组-7备份-2">
                        <circle id="椭圆形" stroke="url(#linearGradient-6)" stroke-width="4.5" fill="url(#linearGradient-5)" cx="18" cy="18" r="15.75"></circle>
                        <g id="¥" fill-rule="nonzero">
                            <use fill="black" fill-opacity="1" filter="url(#filter-8)" xlink:href="#path-7"></use>
                            <use fill="#FFF08D" xlink:href="#path-7"></use>
                        </g>
                    </g>
                </g>
                <polygon id="Chevron-Copy" fill="#9D5700" opacity="0.6" points="183.5 26 182 27.5384615 190.625 36 182 44.4615385 183.5 46 194 36"></polygon>
                <text id="去赚租币" font-family="PingFangSC-Medium, PingFang SC" font-size="28" font-weight="400" line-spacing="28" fill="#9D5F00">
                    <tspan x="62" y="52">去赚租币</tspan>
                </text>
            </g>
        </g>
    </g>
</svg>