<?xml version="1.0" encoding="UTF-8"?>
<svg width="30px" height="30px" viewBox="0 0 30 30" version="1.1" xmlns="http://www.w3.org/2000/svg" xmlns:xlink="http://www.w3.org/1999/xlink">
    <!-- Generator: Sketch 64 (93537) - https://sketch.com -->
    <title>system-help</title>
    <desc>Created with Sketch.</desc>
    <g id="2期下" stroke="none" stroke-width="1" fill="none" fill-rule="evenodd">
        <g id="租币商城" transform="translate(-166.000000, -625.000000)" fill="#B3B3B3" fill-rule="nonzero">
            <g id="编组-6" transform="translate(0.000000, 603.000000)">
                <g id="system-help" transform="translate(166.000000, 22.000000)">
                    <path d="M15,0 C6.72991071,0 0,6.72991071 0,15 C0,23.2700893 6.72991071,30 15,30 C23.2700893,30 30,23.2700893 30,15 C30,6.72991071 23.2700893,0 15,0 Z M15,27.9310345 C7.87109375,27.9310345 2.06896552,22.1289063 2.06896552,15 C2.06896552,7.87109375 7.87109375,2.06896552 15,2.06896552 C22.1289063,2.06896552 27.9310345,7.87109375 27.9310345,15 C27.9310345,22.1289063 22.1289063,27.9310345 15,27.9310345 Z M13.4482759,20.6896552 L15.5172414,20.6896552 L15.5172414,22.7586207 L13.4482759,22.7586207 L13.4482759,20.6896552 Z M14.9983225,7.24137931 C13.1496738,7.24137931 11.8210624,8.05000886 11.0594595,9.42639959 C10.5528425,10.3416994 10.3548928,11.3671105 10.3448276,12.3684348 L12.4920783,12.3925216 C12.5122088,10.6376234 13.1731594,9.44360448 14.9983225,9.44360448 C16.5953402,9.44360448 17.5045666,10.262557 17.5045666,11.6458296 C17.5045666,12.3202611 17.2596459,12.7366193 16.4779124,13.5073981 C16.4074557,13.5762176 16.122274,13.8549368 16.0484623,13.9271973 C14.595713,15.3552027 13.9280522,16.5767494 13.9280522,18.6206897 L16.0753029,18.6206897 C16.0753029,17.2821497 16.4644921,16.5698675 17.5347623,15.5169286 C17.6018639,15.45155 17.8904007,15.1693899 17.9675676,15.0971294 C19.1317801,13.9512841 19.6551724,13.0600711 19.6551724,11.6492706 C19.6518173,8.9790726 17.7260019,7.24137931 14.9983225,7.24137931 Z" id="形状"></path>
                </g>
            </g>
        </g>
    </g>
</svg>