<?xml version="1.0" encoding="UTF-8"?>
<svg width="20px" height="24px" viewBox="0 0 20 24" version="1.1" xmlns="http://www.w3.org/2000/svg" xmlns:xlink="http://www.w3.org/1999/xlink">
    <!-- Generator: Sketch 64 (93537) - https://sketch.com -->
    <title>编组 8</title>
    <desc>Created with Sketch.</desc>
    <g id="2期下" stroke="none" stroke-width="1" fill="none" fill-rule="evenodd">
        <g id="消息/已读" transform="translate(-32.000000, -274.000000)">
            <g id="编组-2" transform="translate(0.000000, 244.000000)">
                <g id="编组-8" transform="translate(30.000000, 30.000000)">
                    <g id="编组-8备份-2">
                        <g id="编组-9">
                            <rect id="矩形" x="0" y="0" width="24" height="24"></rect>
                        </g>
                    </g>
                    <g id="垃圾桶" transform="translate(2.000000, 0.000000)" fill="#999999" fill-rule="nonzero">
                        <path d="M6.09984849,2.1406853 L6.09984847,2.14068533 C8.49204656,-0.14824937 12.2688166,-0.126489969 14.6344834,2.18985609 L14.6344834,2.18985611 C14.9783916,2.53174635 14.9800252,3.08769387 14.6381369,3.43159974 C14.301424,3.77030013 13.7557444,3.7777603 13.4098956,3.44839317 L13.4098957,3.44839332 C11.7198531,1.79135546 9.01939063,1.77580466 7.31037302,3.41327101 L7.31037298,3.41327105 C6.95895773,3.74755113 6.40309224,3.73366205 6.06880982,3.38224656 C5.73452974,3.03083131 5.74841882,2.47496582 6.0998343,2.1406834 L6.09984849,2.1406853 Z M1.21729593,7.10458952 L1.2172959,7.10458952 C0.732361738,7.10458952 0.339246437,6.71147422 0.339246437,6.22654006 C0.339246437,5.7416059 0.732361738,5.3484906 1.2172959,5.3484906 L18.7782851,5.3484906 L18.7782851,5.3484906 C19.2632193,5.3484906 19.6563346,5.7416059 19.6563346,6.22654006 C19.6563346,6.71147422 19.2632193,7.10458952 18.7782851,7.10458952 L1.21729594,7.10458952 L1.21729593,7.10458952 Z M2.31485892,9.50459231 L2.31485892,9.50444899 C2.31485892,9.01951483 2.70797422,8.62639953 3.19290838,8.62639953 C3.67784254,8.62639953 4.07095784,9.01951483 4.07095784,9.50444899 C4.07095784,9.50454462 4.07095782,9.50464026 4.07095779,9.5047359 L4.07095779,21.0364681 L4.07095779,21.0364682 C4.07095785,21.4567429 4.41165975,21.7974448 4.83193446,21.7974448 L15.4563296,21.7974448 L15.4563296,21.7974448 C15.8766043,21.7974448 16.2173063,21.4567452 16.2173063,21.0364682 L16.2173063,9.50473599 L16.2173063,9.50459267 C16.2173062,9.01965851 16.6104216,8.62639953 17.0953557,8.62639953 C17.5802899,8.62639953 17.9734052,9.01965851 17.9734052,9.50459267 C17.9734052,9.5046883 17.9734052,9.50478394 17.9734052,9.50487958 L17.9734052,21.0366117 L17.9734052,21.0366117 C17.9734052,22.4267548 16.8464726,23.553685 15.4563319,23.553685 C15.4563319,23.553685 15.4563319,23.553685 15.4563319,23.553685 L4.83193671,23.553685 L4.8319366,23.553685 C3.44179357,23.553685 2.31485892,22.4267524 2.31485892,21.0366117 C2.31485892,21.0366117 2.31485892,21.0366117 2.31485892,21.0366117 L2.31485892,9.50487958 L2.31485892,9.50459231 Z M6.96148933,11.6323987 L6.96148933,11.632542 C6.96148933,11.1476079 7.35460463,10.7544926 7.83953878,10.7544926 C8.32436044,10.7544926 8.71743121,11.1474344 8.71758826,11.6322561 L8.71758826,17.4859191 L8.71758826,17.4857757 C8.71758826,17.9707098 8.32447295,18.3638251 7.8395388,18.3638251 C7.35471714,18.3638251 6.96164637,17.9708833 6.96148933,17.4860616 L6.96148933,11.6323986 L6.96148933,11.6323987 Z M11.3148694,11.6323987 L11.3148694,11.632542 C11.3148694,11.1476079 11.7079847,10.7544926 12.1929189,10.7544926 C12.6777405,10.7544926 13.0708113,11.1474344 13.0709683,11.6322561 L13.0709683,17.4859191 L13.0709683,17.4857757 C13.0709683,17.9707098 12.677853,18.3638251 12.1929189,18.3638251 C11.7080972,18.3638251 11.3150264,17.9708833 11.3148694,17.4860616 L11.3148694,11.6323986 L11.3148694,11.6323987 Z" id="形状"></path>
                    </g>
                </g>
            </g>
        </g>
    </g>
</svg>