<?xml version="1.0" encoding="UTF-8"?>
<svg width="22px" height="24px" viewBox="0 0 22 24" version="1.1" xmlns="http://www.w3.org/2000/svg" xmlns:xlink="http://www.w3.org/1999/xlink">
    <!-- Generator: Sketch 64 (93537) - https://sketch.com -->
    <title>编组 8备份</title>
    <desc>Created with Sketch.</desc>
    <g id="2期下" stroke="none" stroke-width="1" fill="none" fill-rule="evenodd">
        <g id="消息/已读" transform="translate(-215.000000, -274.000000)">
            <g id="编组-2" transform="translate(0.000000, 244.000000)">
                <g id="编组-8备份" transform="translate(214.000000, 30.000000)">
                    <g id="编组-9">
                        <rect id="矩形" x="0" y="0" width="24" height="24"></rect>
                        <g id="清扫未读信息" transform="translate(1.000000, 0.000000)" fill="#999999" fill-rule="nonzero">
                            <path d="M21.4399496,11.0899362 C21.4399496,9.69774706 20.3081514,8.56594886 18.9159623,8.56594886 L14.458379,8.56594886 L14.458379,4.09805304 C14.458379,2.08453507 12.8212677,0.447423792 10.8077497,0.447423792 C8.79423178,0.447423792 7.1571205,2.08453507 7.1571205,4.09805304 L7.1571205,8.56337074 L2.69953718,8.56337074 C1.30734806,8.56337074 0.175549872,9.69516893 0.175549872,11.087358 C0.175549872,12.1521249 0.840706896,13.0647822 1.77656736,13.4334545 L1.77656736,21.2606511 C1.77656736,22.5161995 2.79750605,23.5371382 4.05305438,23.5371382 L17.5650232,23.5371382 C18.8205716,23.5371382 19.8415103,22.5161995 19.8415103,21.2606511 L19.8415103,13.4360327 C20.7747926,13.0647822 21.4399496,12.154703 21.4399496,11.0899362 Z M8.57766902,4.09805304 C8.57766902,2.86828598 9.57798269,1.87055045 10.8051716,1.87055045 C12.0323605,1.87055045 13.0326742,2.87086411 13.0326742,4.09805304 L13.0326742,8.56337074 L8.57766902,8.56337074 L8.57766902,4.09805304 L8.57766902,4.09805304 Z M17.5624451,21.8329956 L15.9047088,21.8329956 L15.9047088,19.1259612 C15.9047088,18.6541637 15.5231459,18.2726008 15.0513484,18.2726008 C14.579551,18.2726008 14.1979881,18.6541637 14.1979881,19.1259612 L14.1979881,21.8329956 L11.6611101,21.8329956 L11.6611101,19.1259612 C11.6611101,18.6541637 11.2795472,18.2726008 10.8077497,18.2726008 C10.3359523,18.2726008 9.95438938,18.6541637 9.95438938,19.1259612 L9.95438938,21.8329956 L7.41751142,21.8329956 L7.41751142,19.1259612 C7.41751142,18.6541637 7.03594848,18.2726008 6.56415106,18.2726008 C6.09235363,18.2726008 5.71079069,18.6541637 5.71079069,19.1259612 L5.71079069,21.8329956 L4.05047626,21.8329956 C3.7411009,21.8329956 3.48070997,21.5726046 3.48070997,21.2632293 L3.48070997,13.6139235 L18.1322114,13.6139235 L18.1322114,21.2632293 C18.1322114,21.5700265 17.8718205,21.8329956 17.5624451,21.8329956 L17.5624451,21.8329956 Z M18.9159623,12.1907968 L2.69953718,12.1907968 C2.09109898,12.1907968 1.5960984,11.6957963 1.5960984,11.087358 C1.5960984,10.4789198 2.09109898,9.98391926 2.69953718,9.98391926 L18.9159623,9.98391926 C19.5244005,9.98391926 20.0194011,10.4789198 20.0194011,11.087358 C20.0194011,11.6957963 19.5218224,12.1907968 18.9159623,12.1907968 Z" id="形状"></path>
                        </g>
                    </g>
                </g>
            </g>
        </g>
    </g>
</svg>