<?xml version="1.0" encoding="UTF-8"?>
<svg width="29px" height="40px" viewBox="0 0 29 40" version="1.1" xmlns="http://www.w3.org/2000/svg" xmlns:xlink="http://www.w3.org/1999/xlink">
    <!-- Generator: Sketch 64 (93537) - https://sketch.com -->
    <title>编组 3</title>
    <desc>Created with Sketch.</desc>
    <defs>
        <linearGradient x1="47.0877535%" y1="0%" x2="52.9122465%" y2="100%" id="linearGradient-1">
            <stop stop-color="#4BDAA1" offset="0%"></stop>
            <stop stop-color="#46CDC7" offset="100%"></stop>
        </linearGradient>
        <linearGradient x1="1.44647251%" y1="0%" x2="98.5535275%" y2="100%" id="linearGradient-2">
            <stop stop-color="#4BDAA1" offset="0%"></stop>
            <stop stop-color="#46CDC7" offset="100%"></stop>
        </linearGradient>
    </defs>
    <g id="2期下" stroke="none" stroke-width="1" fill="none" fill-rule="evenodd">
        <g id="消息/已读" transform="translate(-39.000000, -366.000000)">
            <g id="编组" transform="translate(0.000000, 338.000000)">
                <g id="ic/消息" transform="translate(30.000000, 24.000000)">
                    <g id="编组-3">
                        <circle id="椭圆形" cx="24" cy="24" r="24"></circle>
                        <g id="通知" transform="translate(8.000000, 4.000000)" fill-rule="nonzero">
                            <path d="M20.4718696,35.1011406 L10.8380474,35.1011406 C10.8380474,37.7504392 13.0056548,39.9180466 15.6549533,39.9180466 C18.3042518,39.9180466 20.4718696,37.7504392 20.4718696,35.1011406 L20.4718696,35.1011406 Z M15.6549637,-2.59216701e-05 C14.3303144,-2.59216701e-05 13.2465081,1.08378038 13.2465081,2.40842964 L13.2465081,4.8168852 L18.063414,4.8168852 L18.063414,2.40842964 C18.063414,1.08378038 16.9796077,-2.59216701e-05 15.6549585,-2.59216701e-05 L15.6549637,-2.59216701e-05 Z" id="形状" fill="url(#linearGradient-1)"></path>
                            <path d="M3.49224625,32.6927109 C2.64928809,32.6927109 1.92675401,32.2110203 1.5654818,31.4884857 C1.20421372,30.7659517 1.32463624,29.8025694 1.80632735,29.2004542 L4.33520181,26.0694646 C4.69646989,25.587774 4.937317,24.9856583 4.937317,24.3835483 L4.937317,14.3884487 C4.937317,8.48775711 9.75422295,3.67084598 15.6549197,3.67084598 C21.5556112,3.67084598 26.3725224,8.48775193 26.3725224,14.3884487 L26.3725224,24.3835483 C26.3725224,24.9856635 26.6133674,25.5877735 26.9746375,26.0694646 L29.503512,29.0800302 C29.9852026,29.6821454 30.1056272,30.6455224 29.744357,31.3680617 C29.383089,32.0905958 28.6605507,32.5722869 27.8175926,32.5722869 L3.49221986,32.5722869 L3.49224625,32.6927109 Z" id="路径" fill="url(#linearGradient-2)"></path>
                            <path d="M15.6549585,4.9954849 C20.833147,4.9954849 25.1683722,9.21027566 25.1683722,14.5088986 L25.1683722,24.5039982 C25.1683722,25.3469564 25.5296403,26.1899145 26.0113303,26.9124538 L28.5402048,30.0434434 C29.0218954,30.6455586 28.6606273,31.6089357 27.8176707,31.6089357 L3.49229799,31.6089357 C2.64933984,31.6089357 2.2880728,30.6455535 2.76976391,30.0434434 L5.29863837,26.9124538 C5.90075355,26.1899197 6.14159652,25.3469616 6.14159652,24.5039982 L6.14159652,14.5088986 C6.14159652,9.21030154 10.4768114,4.9954849 15.6550102,4.9954849 M15.6550102,2.58702933 C9.15217245,2.58702933 3.73316683,7.8856264 3.73316683,14.5088727 L3.73316683,24.5039724 C3.73316683,24.8652404 3.61274431,25.1060876 3.37189876,25.3469305 L0.843024297,28.4779202 C6.61431579e-05,29.4413024 -0.120357929,30.8863757 0.361333701,32.0906009 C0.963448886,33.2948261 2.04725001,34.0173654 3.37189927,34.0173654 L27.697272,34.0173654 C29.0219213,34.0173654 30.2261465,33.2948313 30.7078376,32.0906009 C31.3099528,30.8863757 31.0691057,29.5617265 30.226147,28.4779202 L27.6972725,25.3469305 C27.4564275,25.1060855 27.3360044,24.7448153 27.3360044,24.5039724 L27.3360044,14.5088727 C27.5768495,7.8856264 22.1578159,2.58702933 15.6550299,2.58702933 L15.6550102,2.58702933 Z" id="形状"></path>
                        </g>
                    </g>
                </g>
            </g>
        </g>
    </g>
</svg>