<?xml version="1.0" encoding="UTF-8"?>
<svg width="48px" height="48px" viewBox="0 0 48 48" version="1.1" xmlns="http://www.w3.org/2000/svg" xmlns:xlink="http://www.w3.org/1999/xlink">
    <!-- Generator: Sketch 60 (88103) - https://sketch.com -->
    <title>编组 3</title>
    <desc>Created with Sketch.</desc>
    <defs>
        <linearGradient x1="17.1047839%" y1="12.8840421%" x2="77.3404218%" y2="91.8085415%" id="linearGradient-1">
            <stop stop-color="#8EC8EA" offset="0%"></stop>
            <stop stop-color="#57A6FF" offset="100%"></stop>
        </linearGradient>
        <path d="M30.2500017,14.8237069 L33.1250009,14.8237069 L33.1250007,14.8237069 C34.7128188,14.8237069 36,16.0878335 36,17.6472123 L36,33.1764947 L36,33.1764946 C36,34.7358734 34.7128188,36 33.1250007,36 L15.8749993,36 L15.8749993,36 C14.2871812,36 13,34.7358734 13,33.1764946 L13,17.6472123 L13,17.6472127 C13,16.0878339 14.2871812,14.8237073 15.8749993,14.8237073 L18.7499985,14.8237073 L18.7499985,13.4119546 L18.7499985,13.4117527 C18.7499984,12.6320619 19.3935876,12 20.1874981,12 C20.9814086,12 21.6249977,12.6320619 21.6249977,13.4117527 C21.6249977,13.4118875 21.6249977,13.4120222 21.6249977,13.412157 L21.6249977,14.8239097 L27.375008,14.8239097 L27.375008,13.4119544 L27.375008,13.4121563 C27.3750081,12.6324655 28.0186,12.0004036 28.8125076,12.0004036 C29.6062559,12.0004038 30.2497802,12.6322194 30.2500072,13.411751 L30.2500072,14.8235037 L30.2500017,14.8237069 Z M16.7083346,18 L16.7083345,18 C16.3171338,18 16,18.2238567 16,18.5 C16,18.7761413 16.3171309,19 16.7083345,19 L32.2916655,19 L32.2916655,19 C32.6828662,19 33,18.7761433 33,18.5 C33,18.2238587 32.6828691,18 32.2916655,18 L16.7083345,18 L16.7083346,18 Z M20.8591657,27.2132 L20.8591657,27.2132 C20.4124732,26.801017 19.7129372,26.8254709 19.2967065,27.2678168 C18.9010978,27.6882499 18.9010978,28.3400319 19.2967065,28.7604649 L22.2447435,31.6798325 L22.2447435,31.6798325 C22.6763608,32.1067225 23.3755854,32.1067225 23.8072027,31.6798325 L29.7032889,25.8410854 L29.7032889,25.8410854 C30.1195197,25.398737 30.0948257,24.706004 29.6481357,24.293821 C29.2235738,23.9020597 28.5653909,23.9020597 28.1408291,24.293821 L23.0259786,29.3589299 L20.8591711,27.2131946 L20.8591657,27.2132 Z" id="path-2"></path>
    </defs>
    <g id="2期下" stroke="none" stroke-width="1" fill="none" fill-rule="evenodd">
        <g id="二期下/首页/未签到" transform="translate(-620.000000, -258.000000)">
            <g id="编组-10备份" transform="translate(610.000000, 252.000000)">
                <g id="编组-3" transform="translate(10.000000, 6.000000)">
                    <g id="编组-7备份-2">
                        <circle id="椭圆形" fill="url(#linearGradient-1)" fill-rule="nonzero" cx="24" cy="24" r="24"></circle>
                        <mask id="mask-3" fill="white">
                            <use xlink:href="#path-2"></use>
                        </mask>
                        <use id="蒙版" fill="#FFFFFF" fill-rule="nonzero" xlink:href="#path-2"></use>
                    </g>
                </g>
            </g>
        </g>
    </g>
</svg>