<?xml version="1.0" encoding="UTF-8"?>
<svg width="56px" height="72px" viewBox="0 0 56 72" version="1.1" xmlns="http://www.w3.org/2000/svg" xmlns:xlink="http://www.w3.org/1999/xlink">
    <!-- Generator: Sketch 60 (88103) - https://sketch.com -->
    <title>编组 13</title>
    <desc>Created with Sketch.</desc>
    <defs>
        <linearGradient x1="50%" y1="0%" x2="50%" y2="100%" id="linearGradient-1">
            <stop stop-color="#8EC8EA" offset="0%"></stop>
            <stop stop-color="#3CA4FF" offset="100%"></stop>
        </linearGradient>
        <path d="M15.3114885,-3.55271368e-15 C17.1489493,-3.55271368e-15 18.7085369,1.18773757 19.3210122,2.84357526 C24.4679449,4.56289185 28.1886833,9.49322689 28.1886833,15.3116721 L28.1886833,15.3116721 L28.1886833,24.061199 L30.2601242,27.2219589 C31.2094399,28.6765527 30.1857332,30.6233441 28.4730268,30.6233441 L28.4730268,30.6233441 L21.3552401,30.6233441 C20.4693683,33.167257 18.1113805,34.9981076 15.3115235,34.9981076 C12.5116665,34.9981076 10.1493068,33.167257 9.2677719,30.6233441 L9.2677719,30.6233441 L2.15005513,30.6233441 C0.437313768,30.6233441 -0.586357935,28.6743843 0.362957759,27.2219589 L0.362957759,27.2219589 L2.43223024,24.061199 L2.43223024,15.3116721 C2.43223024,9.49322689 6.15517198,4.56289185 11.3020348,2.84361023 C11.9145101,1.18773757 13.4719292,-3.55271368e-15 15.3115235,-3.55271368e-15 Z" id="path-2"></path>
        <linearGradient x1="72.4459403%" y1="93.4265725%" x2="92.2244148%" y2="26.860276%" id="linearGradient-4">
            <stop stop-color="#8EC8EA" stop-opacity="0" offset="0%"></stop>
            <stop stop-color="#C2DEFF" offset="100%"></stop>
        </linearGradient>
    </defs>
    <g id="2期下" stroke="none" stroke-width="1" fill="none" fill-rule="evenodd">
        <g id="二期下/首页/未签到" transform="translate(-20.000000, -158.000000)">
            <g id="编组-13" transform="translate(20.000000, 158.000000)">
                <circle id="椭圆形备份-2" stroke-opacity="0.7" stroke="#FFFFFF" stroke-width="2" fill="url(#linearGradient-1)" cx="28" cy="28" r="27"></circle>
                <path d="M18.87,53.9 L18.87,48.026 L22.982,48.026 L22.982,53.9 L27.646,53.9 L27.646,66.604 C27.646,68.7986965 26.4145582,70.09 24.27,70.09 L21.0634756,70.09 L19.9596508,66.0279248 L21.3065598,66.0664079 L23.556,66.13108 L23.556,65.514 L18.362,65.514 L18.362,70.134 L14.25,70.134 L14.25,53.9 L18.87,53.9 Z M15.39593,52.4722835 L12.4591599,55.4090537 L11.7543439,54.620331 C10.8856143,53.6481812 9.66380013,52.5941698 8.06569527,51.4435343 L7.0968097,50.7459367 L10.0524301,47.8772464 L10.7327752,48.3702502 C12.3215638,49.5215462 13.6334561,50.6363731 14.7173873,51.7654682 L15.39593,52.4722835 Z M25.8454977,54.9053947 L25.3268963,55.5592833 L21.9454256,53.7527442 L22.6623936,52.8175685 C23.636001,51.5476458 24.383169,50.3179318 24.9169138,49.1067417 L25.3336489,48.1610737 L28.8392973,49.8456061 L28.4373706,50.7355867 C27.800175,52.1465199 26.9324212,53.5349259 25.8454977,54.9053947 Z M24.942443,53.0863637 L24.7832516,53.0013163 C24.621521,53.2218333 24.4532586,53.4422604 24.2785023,53.6626053 L24.5747929,53.6010611 C24.7009683,53.4291551 24.8235127,53.2576054 24.942443,53.0863637 Z M26.3011846,50.8449112 C26.4336267,50.5884715 26.5579626,50.3322522 26.6742504,50.0760862 L26.6306119,49.9562889 L26.5874486,49.9722353 C26.4629923,50.2445026 26.3284051,50.5165812 26.1837572,50.7884851 L26.3011846,50.8449112 Z M19.6274087,53.6596002 L16.1756364,55.3624746 L15.7151876,54.5228326 C14.9968603,53.2129417 14.2349558,52.0464397 13.4054977,50.9830318 L12.6423803,50.0046762 L16.2610239,48.2640628 L16.7489679,48.9553168 C17.5619856,50.1070919 18.3507015,51.3690374 19.115481,52.7411417 L19.6274087,53.6596002 Z M17.2422277,53.4897221 L17.4210869,53.5461189 L17.4353572,53.500312 C17.2906702,53.2377776 17.1441469,52.9803639 16.9956239,52.7278104 L16.8458777,52.8016851 C16.9786369,53.0275022 17.1107542,53.2568478 17.2422277,53.4897221 Z M15.7182839,50.7444727 C15.577052,50.5444371 15.4339299,50.3475973 15.2888071,50.153777 L15.1150321,50.1086832 C15.2753926,50.3358605 15.4349009,50.5677892 15.5935537,50.8044695 L15.7182839,50.7444727 Z M14.5039336,57.6664858 L11.6181931,60.5952971 L10.9093945,59.7801787 C10.0625062,58.8062572 8.88976091,57.7241331 7.41617845,56.5663183 L6.51642485,55.8593691 L9.45416497,53.0080331 L10.1397108,53.535376 C11.635502,54.6859847 12.8863004,55.8282663 13.8887135,56.9673721 L14.5039336,57.6664858 Z M18.362,57.948 L17.362,57.948 L18.362,58.948 L18.362,57.948 Z M18.362,57.924 L18.362,56.924 L17.362,57.924 L18.362,57.924 Z M23.556,57.924 L24.556,57.924 L23.556,56.924 L23.556,57.924 Z M23.556,57.948 L23.556,58.948 L24.556,57.948 L23.556,57.948 Z M11.0796535,69.4806363 L10.6483486,70.3209371 L6.86461343,68.6440545 L7.37206833,67.6946227 C8.74767346,65.1209099 9.93170998,62.5636073 10.9298508,59.9939255 L11.2895746,59.0678282 L14.9956286,60.4796583 L14.6463292,61.4111234 C13.6003348,64.2004417 12.4044427,66.8995814 11.0796535,69.4806363 Z M18.362,61.732 L17.362,61.732 L18.362,62.732 L18.362,61.732 Z M18.362,61.73 L18.362,60.73 L17.362,61.73 L18.362,61.73 Z M23.556,61.73 L24.556,61.73 L23.556,60.73 L23.556,61.73 Z M23.556,61.732 L23.556,62.732 L24.556,61.732 L23.556,61.732 Z M37.2552392,49.456 C37.3724769,49.1564077 37.4731472,48.8480499 37.5603842,48.5240265 L37.7880235,47.6785093 L41.9702441,48.2276898 L41.6687638,49.3331174 C41.6575802,49.3741241 41.6459864,49.4150754 41.6339786,49.456 L48.128,49.456 L48.128,62.566 L32.048,62.566 L32.048,49.456 L37.2552392,49.456 Z M44.104,52.646 L36.072,52.646 L36.072,52.238 L35.664,52.646 L35.072,52.646 L35.368,52.942 L35.072,53.238 L35.664,53.238 L36.072,53.646 L36.072,53.238 L44.104,53.238 L44.104,53.646 L44.512,53.238 L45.104,53.238 L44.808,52.942 L45.104,52.646 L44.512,52.646 L44.104,52.238 L44.104,52.646 Z M44.104,55.682 L36.072,55.682 L36.072,55.296 L35.686,55.682 L35.072,55.682 L35.379,55.989 L35.072,56.296 L35.686,56.296 L36.072,56.682 L36.072,56.296 L44.104,56.296 L44.104,56.682 L44.49,56.296 L45.104,56.296 L44.797,55.989 L45.104,55.682 L44.49,55.682 L44.104,55.296 L44.104,55.682 Z M44.104,58.784 L36.072,58.784 L36.072,58.354 L35.642,58.784 L35.072,58.784 L35.357,59.069 L35.072,59.354 L35.642,59.354 L36.072,59.784 L36.072,59.354 L44.104,59.354 L44.104,59.784 L44.534,59.354 L45.104,59.354 L44.819,59.069 L45.104,58.784 L44.534,58.784 L44.104,58.354 L44.104,58.784 Z M43.9784156,65.0715514 L40.7710087,67.3302887 L40.2019497,66.4767002 C39.6058678,65.5825774 38.8193777,64.6113413 37.8413723,63.57091 L37.0005907,62.6764615 L40.2660616,60.6705293 L40.8242128,61.2400714 C42.0053271,62.44529 42.8380124,63.4048082 43.4213073,64.2573161 L43.9784156,65.0715514 Z M41.7413142,65.3440059 L41.7771876,65.3507051 L41.7936391,65.2595702 C41.6314177,65.0201724 41.4580051,64.7770762 41.2733925,64.5303302 L41.17701,64.5982052 C41.3925299,64.8632538 41.5797745,65.110763 41.7413127,65.3440056 Z M40.1197351,63.1076241 C39.9972904,62.9669733 39.8715691,62.8252827 39.7425697,62.6825601 L39.3957872,62.6399286 C39.5903457,62.8384577 39.7743157,63.0292987 39.9481488,63.2130272 L40.1197351,63.1076241 Z M51.4717947,67.2123159 L48.1636744,69.5500543 L47.6308843,68.5471552 C46.9109023,67.191895 45.9486982,65.6927704 44.7146089,64.0040166 L44.07865,63.133757 L47.3907661,61.074874 L47.942624,61.7922892 C49.2251944,63.4596307 50.2651687,65.0253064 51.0395777,66.4289227 L51.4717947,67.2123159 Z M48.9819516,66.8561048 C48.9370999,66.7775836 48.8915589,66.6986756 48.8453243,66.6193733 L48.8428642,66.6211118 C48.8900733,66.6999697 48.9364372,66.7783046 48.9819516,66.8561048 Z M46.9570945,63.6993748 C46.8033678,63.4806439 46.6451877,63.2590258 46.4824896,63.0344088 L46.357376,63.0117108 C46.5445038,63.2549769 46.7260407,63.4957081 46.9019074,63.7336803 L46.9570945,63.6993748 Z M38.162,66.066 L42.42,66.066 C42.5421355,66.066 42.5205267,66.0743111 42.4587681,66.1625377 L42.5408459,66.0602754 C42.560566,66.0387625 42.6882883,65.3955893 42.7412902,64.3532181 L42.8071905,63.0571798 L46.8130753,64.3337804 L46.7376001,65.1357035 C46.5392315,67.2433706 46.1607494,68.5584354 45.374,69.23 C44.7310934,69.71218 43.8791333,69.936 42.816,69.936 L37.228,69.936 C35.2304842,69.936 34.05,68.7912881 34.05,66.824 L34.05,61.798 L38.162,61.798 L38.162,66.066 Z M32.587822,64.0073683 C32.6052134,63.9485009 32.6222713,63.8894822 32.6389958,63.8303136 C32.621497,63.8895229 32.6038382,63.9484204 32.5860187,64.0070076 L32.587822,64.0073683 Z M32.0017665,69.9284962 L28.5319947,67.7165167 L29.0879521,66.8693436 C29.9318077,65.5834684 30.5314973,64.1585648 30.8853873,62.6181025 L31.1030112,61.6707983 L35.0723329,62.4646627 L34.8082773,63.487878 C34.2487957,65.6558692 33.5023921,67.4989119 32.534798,69.0654929 L32.0017665,69.9284962 Z" id="消息" stroke="#3F94D8" stroke-width="2" fill="#FFFFFF" fill-rule="nonzero" stroke-linejoin="round"></path>
                <g id="编组-9" transform="translate(10.000000, 9.000000)">
                    <g id="编组-8">
                        <rect id="矩形" x="0" y="0" width="35" height="35"></rect>
                        <g id="消息-(4)" transform="translate(1.750000, 0.000000)">
                            <g id="椭圆形" transform="translate(0.185325, 0.000000)">
                                <mask id="mask-3" fill="white">
                                    <use xlink:href="#path-2"></use>
                                </mask>
                                <use id="蒙版" fill="#FFFFFF" fill-rule="nonzero" xlink:href="#path-2"></use>
                                <circle fill="url(#linearGradient-4)" opacity="0.5" mask="url(#mask-3)" cx="-0.435325115" cy="12.5" r="22.5"></circle>
                            </g>
                        </g>
                    </g>
                </g>
            </g>
        </g>
    </g>
</svg>