<?xml version="1.0" encoding="UTF-8"?>
<svg width="56px" height="72px" viewBox="0 0 56 72" version="1.1" xmlns="http://www.w3.org/2000/svg" xmlns:xlink="http://www.w3.org/1999/xlink">
    <!-- Generator: Sketch 60 (88103) - https://sketch.com -->
    <title>编组 13备份</title>
    <desc>Created with Sketch.</desc>
    <defs>
        <linearGradient x1="50%" y1="0%" x2="50%" y2="100%" id="linearGradient-1">
            <stop stop-color="#8EC8EA" offset="0%"></stop>
            <stop stop-color="#3CA4FF" offset="100%"></stop>
        </linearGradient>
        <path d="M25.5017329,34 L3.03608563,34 C1.35861366,34 0,32.6413863 0,30.9639144 L0,3.03608563 C0,1.35861366 1.35861366,0 3.03608563,0 L6.07217125,0 L6.07217125,10.6262997 C6.07217125,10.9624873 6.20733945,11.2640163 6.42915392,11.4858308 L9.71478084,8.20020387 L13.0004077,11.4858308 C13.2187564,11.2674822 13.3573904,10.9624873 13.3573904,10.6262997 L13.3573904,0 L25.5017329,0 C27.1792049,0 28.5378186,1.35861366 28.5378186,3.03608563 L28.5378186,30.9639144 C28.5378186,32.6413863 27.1792049,34 25.5017329,34 Z M21.8591233,17.9115189 L7.28521916,17.9115189 C6.44648318,17.9115189 5.76717635,18.5908257 5.76717635,19.4295617 C5.76717635,20.2682977 6.44648318,20.9476045 7.28521916,20.9476045 L21.8591233,20.9476045 C22.6978593,20.9476045 23.3771662,20.2682977 23.3771662,19.4295617 C23.3771662,18.5908257 22.6978593,17.9115189 21.8591233,17.9115189 Z M21.8591233,25.196738 L7.28521916,25.196738 C6.44648318,25.196738 5.76717635,25.8760449 5.76717635,26.7147808 C5.76717635,27.5535168 6.44648318,28.2328236 7.28521916,28.2328236 L21.8591233,28.2328236 C22.6978593,28.2328236 23.3771662,27.5535168 23.3771662,26.7147808 C23.3771662,25.8760449 22.6978593,25.196738 21.8591233,25.196738 Z" id="path-2"></path>
        <linearGradient x1="72.4459403%" y1="93.4265725%" x2="92.2244148%" y2="26.860276%" id="linearGradient-4">
            <stop stop-color="#8EC8EA" stop-opacity="0" offset="0%"></stop>
            <stop stop-color="#C2DEFF" offset="100%"></stop>
        </linearGradient>
    </defs>
    <g id="2期下" stroke="none" stroke-width="1" fill="none" fill-rule="evenodd">
        <g id="二期下/首页/未签到" transform="translate(-20.000000, -248.000000)">
            <g id="编组-13备份" transform="translate(20.000000, 248.000000)">
                <circle id="椭圆形备份-2" stroke-opacity="0.7" stroke="#FFFFFF" stroke-width="2" fill="url(#linearGradient-1)" cx="28" cy="28" r="27"></circle>
                <g id="椭圆形备份-3" transform="translate(14.000000, 11.000000)">
                    <mask id="mask-3" fill="white">
                        <use xlink:href="#path-2"></use>
                    </mask>
                    <use id="蒙版" fill="#FFFFFF" fill-rule="nonzero" xlink:href="#path-2"></use>
                    <circle id="椭圆形" fill="url(#linearGradient-4)" opacity="0.5" mask="url(#mask-3)" cx="3.5" cy="8.5" r="22.5"></circle>
                </g>
                <path d="M10.2887161,60.08 L7.188,60.08 L7.188,56.078 L10.488,56.078 L10.488,54.932 L7.496,54.932 L7.496,50.93 L10.488,50.93 L10.488,48.092 L14.578,48.092 L14.578,50.93 L17.284,50.93 L17.284,54.932 L14.578,54.932 L14.578,56.078 L17.592,56.078 L17.592,60.08 L14.3878342,60.08 C15.5293691,61.1550006 16.6287697,62.2747379 17.7081026,63.4697137 L18.2297112,64.0472089 L15.8122172,67.6734498 L14.9682502,66.5087752 C14.4276589,65.7627593 13.9255212,65.0965051 13.4648166,64.5128176 C12.7287826,66.7611872 11.6473565,68.606857 10.2151068,70.0391068 L9.55423222,70.6999813 L6.48231999,68.0174664 L7.23889322,67.2608932 C8.854582,65.6452044 9.87434589,63.2721722 10.2887161,60.08 Z M15.6992725,64.2373157 C15.8387025,64.387526 15.9777301,64.5389345 16.1164074,64.6916123 C15.987325,64.5172959 15.8604381,64.3476032 15.7357746,64.1825625 L15.6992725,64.2373157 Z M23.666,52.666 L20.276,52.666 L20.276,63.05 L16.274,63.05 L16.274,48.752 L27.668,48.752 L27.668,63.05 L23.666,63.05 L23.666,52.666 Z M23.5496636,61.072 L24.984,61.072 L24.984,66.088 L25.2749128,66.088 C25.3251094,65.7832166 25.3870621,65.1969545 25.427335,64.4183449 L25.494453,63.1207311 L29.2601421,64.3294708 L29.2055751,65.1115983 C29.0594452,67.2061267 28.7696592,68.4975643 28.1439411,69.1595372 C27.5829899,69.6854289 26.8070279,69.936 25.876,69.936 L23.94,69.936 C22.1237141,69.936 21.07,68.7983618 21.07,66.934 L21.07,66.8388775 C19.86723,68.2594177 18.2077474,69.3970545 16.1139189,70.2570198 L15.3305647,70.5787545 L13.1877825,67.1240649 L14.2701939,66.6714201 C16.4930813,65.741849 17.9736931,64.5820364 18.7163044,63.2654457 C19.4958805,61.7462719 19.9306777,59.735974 20.014,57.232 L20.014,52.184 L23.928,52.184 L23.928,53.184 L23.9277027,57.256383 C23.894853,58.6032186 23.7666687,59.8834444 23.5496636,61.072 Z M46.304,66.1319803 L46.304,48.026 L50.372,48.026 L50.372,66.714 C50.372,68.8086345 49.1520622,70.046 47.062,70.046 L43.2589362,70.046 L42.2751056,65.9317991 L43.6320239,66.0243163 C44.6686985,66.0949987 45.5242872,66.1310196 46.304,66.1319803 Z M44.8370638,68.046 L44.048,68.046 L44.0604842,68.0558508 C44.3342564,68.0721732 44.5964518,68.085894 44.8492574,68.0969916 L44.8370638,68.046 Z M37.768,52.71 L34.004,52.71 L34.004,64.744 L29.98,64.744 L29.98,48.708 L41.792,48.708 L41.792,64.546 L37.768,64.546 L37.768,52.71 Z M45.884,49.874 L45.884,65.47 L41.86,65.47 L41.86,49.874 L45.884,49.874 Z M31.2276473,70.3758568 L30.4642707,70.6682137 L28.1788938,67.0708612 L29.3285994,66.6365279 C31.1143734,65.9619022 32.304816,65.1198818 32.8617569,64.2158611 C33.4682106,63.154567 33.8142541,61.7110712 33.896,59.894 L33.896,52.008 L37.92,52.008 L37.92,53.008 L37.9194259,59.9278788 C37.8269338,62.6563973 37.2667779,64.8970207 36.214019,66.6497357 C35.1389111,68.2748989 33.4666742,69.5183571 31.2276473,70.3758568 Z M39.1926089,69.7680166 C38.42255,68.7142518 37.2994212,67.5386404 35.8183784,66.2318379 L35.014083,65.5221655 L37.8701709,62.7093516 L38.5652378,63.2780427 C40.0478364,64.4910779 41.3079146,65.7226475 42.3522213,66.9758156 L42.9409653,67.6823084 L39.8766461,70.7040676 L39.1926089,69.7680166 Z" id="规则" stroke="#3F94D8" stroke-width="2" fill="#FFFFFF" fill-rule="nonzero" stroke-linejoin="round"></path>
            </g>
        </g>
    </g>
</svg>